<svg xmlns="http://www.w3.org/2000/svg" xmlns:xlink="http://www.w3.org/1999/xlink" width="512" zoomAndPan="magnify" viewBox="0 0 384 383.999986" height="512" preserveAspectRatio="xMidYMid meet" version="1.0"><defs><clipPath id="944d5a1868"><path d="M 33 78 L 352.171875 78 L 352.171875 384 L 33 384 Z M 33 78 " clip-rule="nonzero"/></clipPath></defs><rect x="-38.4" width="460.8" fill="#ffffff" y="-38.399999" height="460.799983" fill-opacity="1"/><rect x="-38.4" width="460.8" fill="#ffffff" y="-38.399999" height="460.799983" fill-opacity="1"/><g clip-path="url(#944d5a1868)"><path fill="#000000" d="M 328.542969 384 L 57.15625 384 C 50.566406 384 44.167969 381.253906 39.652344 376.464844 C 35.121094 371.675781 32.726562 365.152344 33.097656 358.566406 L 47.382812 101.496094 C 48.089844 88.722656 58.648438 78.726562 71.441406 78.726562 L 314.253906 78.726562 C 327.046875 78.726562 337.605469 88.722656 338.3125 101.496094 L 352.601562 358.566406 C 352.96875 365.152344 350.574219 371.675781 346.042969 376.464844 C 341.511719 381.253906 335.132812 384 328.542969 384 Z M 71.441406 94.796875 C 67.183594 94.796875 63.648438 98.136719 63.421875 102.378906 L 49.136719 359.449219 C 49.023438 361.683594 49.792969 363.804688 51.320312 365.425781 C 52.863281 367.035156 54.921875 367.933594 57.15625 367.933594 L 328.542969 367.933594 C 330.777344 367.933594 332.847656 367.035156 334.375 365.425781 C 335.902344 363.804688 336.691406 361.683594 336.5625 359.449219 L 322.273438 102.378906 C 322.046875 98.136719 318.511719 94.796875 314.253906 94.796875 Z M 71.441406 94.796875 " fill-opacity="1" fill-rule="nonzero"/></g><path fill="#000000" d="M 265.171875 143.382812 C 260.734375 143.382812 257.136719 139.78125 257.136719 135.347656 L 257.136719 80.207031 C 257.136719 44.761719 228.300781 15.9375 192.847656 15.9375 C 157.394531 15.9375 128.5625 44.761719 128.5625 80.207031 L 128.5625 135.347656 C 128.5625 139.78125 124.960938 143.382812 120.527344 143.382812 C 116.089844 143.382812 112.492188 139.78125 112.492188 135.347656 L 112.492188 80.207031 C 112.492188 35.910156 148.539062 -0.128906 192.847656 -0.128906 C 237.15625 -0.128906 273.207031 35.910156 273.207031 80.207031 L 273.207031 135.347656 C 273.207031 139.78125 269.605469 143.382812 265.171875 143.382812 Z M 265.171875 143.382812 " fill-opacity="1" fill-rule="nonzero"/></svg>