<svg xmlns="http://www.w3.org/2000/svg" xmlns:xlink="http://www.w3.org/1999/xlink" width="500" zoomAndPan="magnify" viewBox="0 0 375 374.999991" height="500" preserveAspectRatio="xMidYMid meet" version="1.0"><defs><g/></defs><rect x="-37.5" width="450" fill="#ffffff" y="-37.499999" height="449.999989" fill-opacity="1"/><rect x="-37.5" width="450" fill="#580a1e" y="-37.499999" height="449.999989" fill-opacity="1"/><g fill="#caa24c" fill-opacity="1"><g transform="translate(122.897691, 239.975156)"><g><path d="M 1.5625 0 L 1.5625 -10.6875 L 2.90625 -10.6875 L 2.90625 -1.28125 L 8.09375 -1.28125 L 8.09375 0 Z M 1.5625 0 "/></g></g></g><g fill="#caa24c" fill-opacity="1"><g transform="translate(138.998818, 239.975156)"><g><path d="M 1.5625 0 L 1.5625 -10.6875 L 8.046875 -10.6875 L 8.046875 -9.4375 L 2.90625 -9.4375 L 2.90625 -6.0625 L 7.65625 -6.0625 L 7.65625 -4.828125 L 2.90625 -4.828125 L 2.90625 -1.25 L 8.21875 -1.25 L 8.21875 0 Z M 1.5625 0 "/></g></g></g><g fill="#caa24c" fill-opacity="1"><g transform="translate(155.740779, 239.975156)"><g><path d="M 1.5625 0 L 1.5625 -10.6875 L 2.828125 -10.6875 L 8.734375 -2.328125 L 8.734375 -10.6875 L 10.046875 -10.6875 L 10.046875 0 L 8.796875 0 L 2.890625 -8.359375 L 2.890625 0 Z M 1.5625 0 "/></g></g></g><g fill="#caa24c" fill-opacity="1"><g transform="translate(174.878218, 239.975156)"><g><path d="M 6.296875 0.203125 C 5.503906 0.203125 4.773438 0.0664062 4.109375 -0.203125 C 3.453125 -0.484375 2.878906 -0.867188 2.390625 -1.359375 C 1.910156 -1.859375 1.539062 -2.445312 1.28125 -3.125 C 1.019531 -3.800781 0.890625 -4.539062 0.890625 -5.34375 C 0.890625 -6.144531 1.019531 -6.882812 1.28125 -7.5625 C 1.539062 -8.238281 1.910156 -8.820312 2.390625 -9.3125 C 2.878906 -9.8125 3.453125 -10.195312 4.109375 -10.46875 C 4.773438 -10.75 5.503906 -10.890625 6.296875 -10.890625 C 7.140625 -10.890625 7.910156 -10.734375 8.609375 -10.421875 C 9.316406 -10.109375 9.921875 -9.664062 10.421875 -9.09375 C 10.929688 -8.519531 11.304688 -7.835938 11.546875 -7.046875 L 10.109375 -7.046875 C 9.828125 -7.828125 9.347656 -8.4375 8.671875 -8.875 C 7.992188 -9.320312 7.210938 -9.546875 6.328125 -9.546875 C 5.535156 -9.546875 4.832031 -9.363281 4.21875 -9 C 3.613281 -8.644531 3.132812 -8.148438 2.78125 -7.515625 C 2.4375 -6.890625 2.265625 -6.164062 2.265625 -5.34375 C 2.265625 -4.519531 2.4375 -3.789062 2.78125 -3.15625 C 3.132812 -2.53125 3.613281 -2.035156 4.21875 -1.671875 C 4.832031 -1.316406 5.535156 -1.140625 6.328125 -1.140625 C 7.234375 -1.140625 8.035156 -1.375 8.734375 -1.84375 C 9.441406 -2.3125 9.9375 -2.945312 10.21875 -3.75 L 11.625 -3.75 C 11.414062 -2.957031 11.050781 -2.265625 10.53125 -1.671875 C 10.019531 -1.085938 9.398438 -0.628906 8.671875 -0.296875 C 7.953125 0.0351562 7.160156 0.203125 6.296875 0.203125 Z M 6.296875 0.203125 "/></g></g></g><g fill="#caa24c" fill-opacity="1"><g transform="translate(194.870095, 239.975156)"><g><path d="M 1.5625 0 L 1.5625 -10.6875 L 8.046875 -10.6875 L 8.046875 -9.4375 L 2.90625 -9.4375 L 2.90625 -6.0625 L 7.65625 -6.0625 L 7.65625 -4.828125 L 2.90625 -4.828125 L 2.90625 -1.25 L 8.21875 -1.25 L 8.21875 0 Z M 1.5625 0 "/></g></g></g><g fill="#caa24c" fill-opacity="1"><g transform="translate(211.612056, 239.975156)"><g><path d="M 1.5625 0 L 1.5625 -10.6875 L 5.640625 -10.6875 C 6.378906 -10.6875 7.019531 -10.546875 7.5625 -10.265625 C 8.113281 -9.984375 8.539062 -9.585938 8.84375 -9.078125 C 9.15625 -8.566406 9.3125 -7.957031 9.3125 -7.25 C 9.3125 -6.382812 9.085938 -5.671875 8.640625 -5.109375 C 8.191406 -4.546875 7.578125 -4.164062 6.796875 -3.96875 L 9.484375 0 L 7.859375 0 L 5.25 -3.828125 L 2.90625 -3.828125 L 2.90625 0 Z M 2.90625 -5.109375 L 5.484375 -5.109375 C 6.265625 -5.109375 6.867188 -5.296875 7.296875 -5.671875 C 7.722656 -6.046875 7.9375 -6.570312 7.9375 -7.25 C 7.9375 -7.9375 7.722656 -8.46875 7.296875 -8.84375 C 6.867188 -9.21875 6.265625 -9.40625 5.484375 -9.40625 L 2.90625 -9.40625 Z M 2.90625 -5.109375 "/></g></g></g><g fill="#caa24c" fill-opacity="1"><g transform="translate(229.544123, 239.975156)"><g><path d="M 1.5625 0 L 1.5625 -10.6875 L 2.90625 -10.6875 L 2.90625 0 Z M 1.578125 -11.734375 L 2.5625 -13.859375 L 3.9375 -13.859375 L 2.765625 -11.734375 Z M 1.578125 -11.734375 "/></g></g></g><g fill="#caa24c" fill-opacity="1"><g transform="translate(241.540895, 239.975156)"><g><path d="M 0.265625 0 L 4.65625 -10.6875 L 5.90625 -10.6875 L 10.296875 0 L 8.890625 0 L 7.875 -2.421875 L 2.671875 -2.421875 L 1.6875 0 Z M 3.1875 -3.671875 L 7.375 -3.671875 L 5.28125 -8.8125 Z M 3.1875 -3.671875 "/></g></g></g><g fill="#caa24c" fill-opacity="1"><g transform="translate(54.66797, 210.374986)"><g><path d="M 46.53125 -48.265625 C 46.53125 -49.535156 46.082031 -50.628906 45.1875 -51.546875 C 44.289062 -52.472656 43.238281 -52.960938 42.03125 -53.015625 L 27.015625 -53.015625 L 27.015625 -5.6875 C 27.066406 -4.320312 27.578125 -3.164062 28.546875 -2.21875 C 29.523438 -1.269531 30.703125 -0.796875 32.078125 -0.796875 L 33.09375 -0.796875 L 33.09375 0 L 15.796875 0 L 15.796875 -0.796875 L 16.828125 -0.796875 C 18.191406 -0.796875 19.359375 -1.269531 20.328125 -2.21875 C 21.304688 -3.164062 21.828125 -4.296875 21.890625 -5.609375 L 21.890625 -53.015625 L 6.875 -53.015625 C 5.613281 -52.960938 4.546875 -52.472656 3.671875 -51.546875 C 2.804688 -50.628906 2.375 -49.535156 2.375 -48.265625 L 2.375 -46.921875 L 1.578125 -46.84375 L 1.578125 -56.796875 C 2.367188 -56.484375 3.738281 -56.164062 5.6875 -55.84375 C 7.632812 -55.53125 9.425781 -55.375 11.0625 -55.375 L 37.765625 -55.375 C 40.347656 -55.375 42.492188 -55.570312 44.203125 -55.96875 C 45.910156 -56.363281 46.953125 -56.640625 47.328125 -56.796875 L 47.328125 -46.84375 L 46.53125 -46.921875 Z M 46.53125 -48.265625 "/></g></g></g><g fill="#caa24c" fill-opacity="1"><g transform="translate(103.487535, 210.374986)"><g><path d="M 21.015625 -52.84375 L 15.953125 -52.84375 L 15.953125 -5.765625 C 15.953125 -4.398438 16.4375 -3.226562 17.40625 -2.25 C 18.382812 -1.28125 19.585938 -0.796875 21.015625 -0.796875 L 21.96875 -0.796875 L 22.046875 0 L 4.734375 0 L 4.734375 -0.796875 L 5.765625 -0.796875 C 7.140625 -0.796875 8.3125 -1.269531 9.28125 -2.21875 C 10.257812 -3.164062 10.773438 -4.320312 10.828125 -5.6875 L 10.828125 -49.53125 C 10.773438 -50.90625 10.257812 -52.078125 9.28125 -53.046875 C 8.3125 -54.023438 7.140625 -54.515625 5.765625 -54.515625 L 4.734375 -54.515625 L 4.734375 -55.296875 L 26.0625 -55.296875 C 30.863281 -55.296875 34.628906 -53.96875 37.359375 -51.3125 C 40.097656 -48.65625 41.46875 -45.207031 41.46875 -40.96875 C 41.46875 -36.726562 40.164062 -33.066406 37.5625 -29.984375 C 34.957031 -26.898438 31.785156 -25.359375 28.046875 -25.359375 C 28.835938 -24.992188 29.769531 -24.269531 30.84375 -23.1875 C 31.925781 -22.101562 32.890625 -20.984375 33.734375 -19.828125 C 38.265625 -13.347656 41.210938 -9.359375 42.578125 -7.859375 C 43.953125 -6.359375 44.925781 -5.332031 45.5 -4.78125 C 46.082031 -4.226562 46.710938 -3.6875 47.390625 -3.15625 C 48.078125 -2.632812 48.765625 -2.210938 49.453125 -1.890625 C 50.984375 -1.160156 52.617188 -0.796875 54.359375 -0.796875 L 54.359375 0 L 50 0 C 47.738281 0 45.632812 -0.40625 43.6875 -1.21875 C 41.738281 -2.039062 40.273438 -2.882812 39.296875 -3.75 C 38.328125 -4.625 37.484375 -5.46875 36.765625 -6.28125 C 36.054688 -7.09375 34.09375 -9.816406 30.875 -14.453125 C 27.664062 -19.085938 25.796875 -21.734375 25.265625 -22.390625 C 24.742188 -23.054688 24.195312 -23.703125 23.625 -24.328125 C 21.9375 -26.117188 20.25 -27.015625 18.5625 -27.015625 L 18.5625 -27.8125 C 18.988281 -27.757812 19.539062 -27.734375 20.21875 -27.734375 C 20.90625 -27.734375 21.75 -27.757812 22.75 -27.8125 C 29.28125 -27.96875 33.390625 -30.707031 35.078125 -36.03125 C 35.390625 -37.082031 35.546875 -38.066406 35.546875 -38.984375 C 35.546875 -39.910156 35.546875 -40.503906 35.546875 -40.765625 C 35.441406 -44.296875 34.519531 -47.140625 32.78125 -49.296875 C 31.039062 -51.453125 28.695312 -52.609375 25.75 -52.765625 C 24.488281 -52.816406 22.910156 -52.84375 21.015625 -52.84375 Z M 21.015625 -52.84375 "/></g></g></g><g fill="#caa24c" fill-opacity="1"><g transform="translate(154.597944, 210.374986)"><g><path d="M 56.5625 -0.796875 L 57.1875 -0.796875 L 57.1875 0 L 39.421875 0 L 39.421875 -0.796875 L 40.125 -0.796875 C 41.238281 -0.796875 42.070312 -1.148438 42.625 -1.859375 C 43.175781 -2.566406 43.453125 -3.234375 43.453125 -3.859375 C 43.453125 -4.492188 43.347656 -5.128906 43.140625 -5.765625 L 38.078125 -19.203125 L 16.75 -19.203125 L 11.453125 -5.6875 C 11.242188 -5.050781 11.140625 -4.429688 11.140625 -3.828125 C 11.140625 -3.222656 11.414062 -2.566406 11.96875 -1.859375 C 12.519531 -1.148438 13.347656 -0.796875 14.453125 -0.796875 L 15.171875 -0.796875 L 15.171875 0 L -0.71875 0 L -0.71875 -0.796875 L 0 -0.796875 C 1.3125 -0.796875 2.597656 -1.210938 3.859375 -2.046875 C 5.128906 -2.890625 6.160156 -4.128906 6.953125 -5.765625 L 24.8125 -48.265625 C 26.757812 -52.535156 27.734375 -55.25 27.734375 -56.40625 L 28.4375 -56.40625 L 49.609375 -5.765625 C 50.347656 -4.128906 51.347656 -2.890625 52.609375 -2.046875 C 53.878906 -1.210938 55.195312 -0.796875 56.5625 -0.796875 Z M 17.6875 -21.5625 L 37.125 -21.5625 L 27.65625 -46.921875 Z M 17.6875 -21.5625 "/></g></g></g><g fill="#caa24c" fill-opacity="1"><g transform="translate(208.078219, 210.374986)"><g><path d="M 32.9375 1.109375 C 24.625 1.054688 17.84375 -1.597656 12.59375 -6.859375 C 7.351562 -12.128906 4.734375 -19.070312 4.734375 -27.6875 C 4.734375 -36.300781 7.351562 -43.238281 12.59375 -48.5 C 17.84375 -53.769531 24.785156 -56.40625 33.421875 -56.40625 C 40.472656 -56.40625 46.710938 -54.613281 52.140625 -51.03125 L 53.71875 -39.890625 L 53.015625 -39.890625 C 51.847656 -44.421875 49.5 -47.910156 45.96875 -50.359375 C 42.445312 -52.804688 38.265625 -54.03125 33.421875 -54.03125 C 26.515625 -54.03125 20.992188 -51.632812 16.859375 -46.84375 C 12.734375 -42.050781 10.671875 -35.703125 10.671875 -27.796875 C 10.671875 -19.898438 12.707031 -13.539062 16.78125 -8.71875 C 20.863281 -3.90625 26.25 -1.421875 32.9375 -1.265625 C 38.84375 -1.265625 43.769531 -2.867188 47.71875 -6.078125 C 51.976562 -9.554688 54.554688 -15.21875 55.453125 -23.0625 L 56.09375 -23.0625 L 55.140625 -10.671875 C 50.347656 -2.816406 42.945312 1.109375 32.9375 1.109375 Z M 32.9375 1.109375 "/></g></g></g><g fill="#caa24c" fill-opacity="1"><g transform="translate(268.115236, 210.374986)"><g><path d="M 53.171875 -54.515625 L 52.0625 -54.515625 C 50.476562 -54.515625 48.988281 -54.078125 47.59375 -53.203125 C 46.195312 -52.335938 45.023438 -51.242188 44.078125 -49.921875 L 28.515625 -24.640625 L 28.515625 -5.765625 C 28.515625 -4.398438 29 -3.226562 29.96875 -2.25 C 30.945312 -1.28125 32.148438 -0.796875 33.578125 -0.796875 L 34.515625 -0.796875 L 34.515625 0 L 17.296875 0 L 17.296875 -0.796875 L 18.328125 -0.796875 C 19.691406 -0.796875 20.859375 -1.269531 21.828125 -2.21875 C 22.804688 -3.164062 23.328125 -4.320312 23.390625 -5.6875 L 23.390625 -24.734375 L 8.296875 -49.921875 C 7.503906 -51.191406 6.382812 -52.273438 4.9375 -53.171875 C 3.488281 -54.066406 1.972656 -54.515625 0.390625 -54.515625 L -0.71875 -54.515625 L -0.71875 -55.296875 L 18.71875 -55.296875 L 18.71875 -54.515625 L 17.6875 -54.515625 C 16.53125 -54.515625 15.640625 -53.988281 15.015625 -52.9375 C 14.691406 -52.351562 14.53125 -51.785156 14.53125 -51.234375 C 14.53125 -50.679688 14.664062 -50.140625 14.9375 -49.609375 L 26.78125 -27.484375 L 39.421875 -49.6875 C 39.679688 -50.21875 39.8125 -50.742188 39.8125 -51.265625 C 39.8125 -51.796875 39.628906 -52.351562 39.265625 -52.9375 C 38.628906 -53.988281 37.734375 -54.515625 36.578125 -54.515625 L 35.625 -54.515625 L 35.625 -55.296875 L 53.171875 -55.296875 Z M 53.171875 -54.515625 "/></g></g></g></svg>