<svg xmlns="http://www.w3.org/2000/svg" xmlns:xlink="http://www.w3.org/1999/xlink" width="500" zoomAndPan="magnify" viewBox="0 0 375 374.999991" height="500" preserveAspectRatio="xMidYMid meet" version="1.0"><defs><g/><clipPath id="1ae10542d6"><path d="M 147.25 37.5 L 227.5 37.5 L 227.5 117.75 L 147.25 117.75 Z M 147.25 37.5 " clip-rule="nonzero"/></clipPath></defs><rect x="-37.5" width="450" fill="#ffffff" y="-37.499999" height="449.999989" fill-opacity="1"/><rect x="-37.5" width="450" fill="#fef9f4" y="-37.499999" height="449.999989" fill-opacity="1"/><g fill="#caa24c" fill-opacity="1"><g transform="translate(100.066404, 234.050053)"><g><path d="M 30.625 -31.765625 C 30.625 -32.597656 30.328125 -33.316406 29.734375 -33.921875 C 29.148438 -34.535156 28.457031 -34.859375 27.65625 -34.890625 L 17.78125 -34.890625 L 17.78125 -3.75 C 17.820312 -2.84375 18.160156 -2.078125 18.796875 -1.453125 C 19.441406 -0.828125 20.210938 -0.515625 21.109375 -0.515625 L 21.78125 -0.515625 L 21.78125 0 L 10.40625 0 L 10.40625 -0.515625 L 11.078125 -0.515625 C 11.972656 -0.515625 12.742188 -0.828125 13.390625 -1.453125 C 14.035156 -2.078125 14.375 -2.820312 14.40625 -3.6875 L 14.40625 -34.890625 L 4.53125 -34.890625 C 3.695312 -34.859375 2.992188 -34.535156 2.421875 -33.921875 C 1.847656 -33.316406 1.5625 -32.597656 1.5625 -31.765625 L 1.5625 -30.890625 L 1.046875 -30.84375 L 1.046875 -37.390625 C 1.554688 -37.179688 2.453125 -36.972656 3.734375 -36.765625 C 5.023438 -36.554688 6.207031 -36.453125 7.28125 -36.453125 L 24.859375 -36.453125 C 26.554688 -36.453125 27.96875 -36.582031 29.09375 -36.84375 C 30.21875 -37.101562 30.898438 -37.285156 31.140625 -37.390625 L 31.140625 -30.84375 L 30.625 -30.890625 Z M 30.625 -31.765625 "/></g></g></g><g fill="#caa24c" fill-opacity="1"><g transform="translate(132.199959, 234.050053)"><g><path d="M 13.828125 -34.78125 L 10.5 -34.78125 L 10.5 -3.796875 C 10.5 -2.890625 10.816406 -2.113281 11.453125 -1.46875 C 12.097656 -0.832031 12.890625 -0.515625 13.828125 -0.515625 L 14.453125 -0.515625 L 14.515625 0 L 3.125 0 L 3.125 -0.515625 L 3.796875 -0.515625 C 4.691406 -0.515625 5.460938 -0.828125 6.109375 -1.453125 C 6.753906 -2.078125 7.09375 -2.84375 7.125 -3.75 L 7.125 -32.609375 C 7.09375 -33.503906 6.753906 -34.269531 6.109375 -34.90625 C 5.460938 -35.550781 4.691406 -35.875 3.796875 -35.875 L 3.125 -35.875 L 3.125 -36.40625 L 17.15625 -36.40625 C 20.3125 -36.40625 22.789062 -35.523438 24.59375 -33.765625 C 26.394531 -32.015625 27.296875 -29.742188 27.296875 -26.953125 C 27.296875 -24.171875 26.4375 -21.765625 24.71875 -19.734375 C 23.007812 -17.703125 20.921875 -16.6875 18.453125 -16.6875 C 18.972656 -16.445312 19.585938 -15.972656 20.296875 -15.265625 C 21.015625 -14.554688 21.648438 -13.816406 22.203125 -13.046875 C 25.179688 -8.785156 27.117188 -6.160156 28.015625 -5.171875 C 28.921875 -4.179688 29.566406 -3.503906 29.953125 -3.140625 C 30.335938 -2.773438 30.753906 -2.421875 31.203125 -2.078125 C 31.648438 -1.734375 32.097656 -1.457031 32.546875 -1.25 C 33.554688 -0.757812 34.632812 -0.515625 35.78125 -0.515625 L 35.78125 0 L 32.921875 0 C 31.429688 0 30.039062 -0.265625 28.75 -0.796875 C 27.46875 -1.335938 26.503906 -1.894531 25.859375 -2.46875 C 25.222656 -3.039062 24.671875 -3.59375 24.203125 -4.125 C 23.734375 -4.664062 22.441406 -6.460938 20.328125 -9.515625 C 18.210938 -12.566406 16.984375 -14.304688 16.640625 -14.734375 C 16.296875 -15.171875 15.929688 -15.597656 15.546875 -16.015625 C 14.441406 -17.191406 13.332031 -17.78125 12.21875 -17.78125 L 12.21875 -18.296875 C 12.5 -18.265625 12.863281 -18.25 13.3125 -18.25 C 13.757812 -18.25 14.3125 -18.265625 14.96875 -18.296875 C 19.269531 -18.398438 21.976562 -20.207031 23.09375 -23.71875 C 23.300781 -24.40625 23.40625 -25.050781 23.40625 -25.65625 C 23.40625 -26.269531 23.40625 -26.660156 23.40625 -26.828125 C 23.332031 -29.148438 22.722656 -31.019531 21.578125 -32.4375 C 20.429688 -33.863281 18.890625 -34.628906 16.953125 -34.734375 C 16.117188 -34.765625 15.078125 -34.78125 13.828125 -34.78125 Z M 13.828125 -34.78125 "/></g></g></g><g fill="#caa24c" fill-opacity="1"><g transform="translate(165.841363, 234.050053)"><g><path d="M 37.234375 -0.515625 L 37.640625 -0.515625 L 37.640625 0 L 25.9375 0 L 25.9375 -0.515625 L 26.40625 -0.515625 C 27.132812 -0.515625 27.679688 -0.75 28.046875 -1.21875 C 28.410156 -1.6875 28.59375 -2.128906 28.59375 -2.546875 C 28.59375 -2.960938 28.523438 -3.378906 28.390625 -3.796875 L 25.0625 -12.640625 L 11.015625 -12.640625 L 7.53125 -3.75 C 7.394531 -3.332031 7.328125 -2.921875 7.328125 -2.515625 C 7.328125 -2.117188 7.507812 -1.6875 7.875 -1.21875 C 8.238281 -0.75 8.785156 -0.515625 9.515625 -0.515625 L 9.984375 -0.515625 L 9.984375 0 L -0.46875 0 L -0.46875 -0.515625 L 0 -0.515625 C 0.863281 -0.515625 1.710938 -0.789062 2.546875 -1.34375 C 3.378906 -1.90625 4.054688 -2.722656 4.578125 -3.796875 L 16.328125 -31.765625 C 17.609375 -34.578125 18.25 -36.363281 18.25 -37.125 L 18.71875 -37.125 L 32.65625 -3.796875 C 33.132812 -2.722656 33.789062 -1.90625 34.625 -1.34375 C 35.457031 -0.789062 36.328125 -0.515625 37.234375 -0.515625 Z M 11.640625 -14.203125 L 24.4375 -14.203125 L 18.1875 -30.890625 Z M 11.640625 -14.203125 "/></g></g></g><g fill="#caa24c" fill-opacity="1"><g transform="translate(201.042643, 234.050053)"><g><path d="M 21.6875 0.734375 C 16.207031 0.691406 11.742188 -1.054688 8.296875 -4.515625 C 4.847656 -7.984375 3.125 -12.550781 3.125 -18.21875 C 3.125 -23.894531 4.847656 -28.460938 8.296875 -31.921875 C 11.742188 -35.390625 16.3125 -37.125 22 -37.125 C 26.644531 -37.125 30.75 -35.945312 34.3125 -33.59375 L 35.359375 -26.265625 L 34.890625 -26.265625 C 34.128906 -29.242188 32.585938 -31.535156 30.265625 -33.140625 C 27.941406 -34.753906 25.1875 -35.5625 22 -35.5625 C 17.457031 -35.5625 13.820312 -33.984375 11.09375 -30.828125 C 8.375 -27.679688 7.015625 -23.503906 7.015625 -18.296875 C 7.015625 -13.097656 8.359375 -8.910156 11.046875 -5.734375 C 13.734375 -2.566406 17.28125 -0.929688 21.6875 -0.828125 C 25.570312 -0.828125 28.8125 -1.882812 31.40625 -4 C 34.21875 -6.289062 35.914062 -10.019531 36.5 -15.1875 L 36.921875 -15.1875 L 36.296875 -7.015625 C 33.140625 -1.847656 28.269531 0.734375 21.6875 0.734375 Z M 21.6875 0.734375 "/></g></g></g><g fill="#caa24c" fill-opacity="1"><g transform="translate(240.559639, 234.050053)"><g><path d="M 34.984375 -35.875 L 34.265625 -35.875 C 33.222656 -35.875 32.242188 -35.585938 31.328125 -35.015625 C 30.410156 -34.441406 29.640625 -33.722656 29.015625 -32.859375 L 18.765625 -16.21875 L 18.765625 -3.796875 C 18.765625 -2.890625 19.082031 -2.113281 19.71875 -1.46875 C 20.363281 -0.832031 21.15625 -0.515625 22.09375 -0.515625 L 22.71875 -0.515625 L 22.71875 0 L 11.390625 0 L 11.390625 -0.515625 L 12.0625 -0.515625 C 12.957031 -0.515625 13.722656 -0.828125 14.359375 -1.453125 C 15.003906 -2.078125 15.347656 -2.84375 15.390625 -3.75 L 15.390625 -16.28125 L 5.453125 -32.859375 C 4.929688 -33.691406 4.191406 -34.398438 3.234375 -34.984375 C 2.285156 -35.578125 1.289062 -35.875 0.25 -35.875 L -0.46875 -35.875 L -0.46875 -36.40625 L 12.3125 -36.40625 L 12.3125 -35.875 L 11.640625 -35.875 C 10.878906 -35.875 10.289062 -35.53125 9.875 -34.84375 C 9.664062 -34.457031 9.5625 -34.082031 9.5625 -33.71875 C 9.5625 -33.351562 9.648438 -33 9.828125 -32.65625 L 17.625 -18.09375 L 25.9375 -32.703125 C 26.113281 -33.054688 26.203125 -33.40625 26.203125 -33.75 C 26.203125 -34.09375 26.082031 -34.457031 25.84375 -34.84375 C 25.425781 -35.53125 24.835938 -35.875 24.078125 -35.875 L 23.453125 -35.875 L 23.453125 -36.40625 L 34.984375 -36.40625 Z M 34.984375 -35.875 "/></g></g></g><g fill="#caa24c" fill-opacity="1"><g transform="translate(144.068975, 258.573499)"><g><path d="M 1.046875 0 L 1.046875 -7.1875 L 1.953125 -7.1875 L 1.953125 -0.859375 L 5.4375 -0.859375 L 5.4375 0 Z M 1.046875 0 "/></g></g></g><g fill="#caa24c" fill-opacity="1"><g transform="translate(154.892968, 258.573499)"><g><path d="M 1.046875 0 L 1.046875 -7.1875 L 5.40625 -7.1875 L 5.40625 -6.34375 L 1.953125 -6.34375 L 1.953125 -4.078125 L 5.15625 -4.078125 L 5.15625 -3.25 L 1.953125 -3.25 L 1.953125 -0.84375 L 5.515625 -0.84375 L 5.515625 0 Z M 1.046875 0 "/></g></g></g><g fill="#caa24c" fill-opacity="1"><g transform="translate(166.147625, 258.573499)"><g><path d="M 1.046875 0 L 1.046875 -7.1875 L 1.90625 -7.1875 L 5.875 -1.5625 L 5.875 -7.1875 L 6.75 -7.1875 L 6.75 0 L 5.90625 0 L 1.9375 -5.625 L 1.9375 0 Z M 1.046875 0 "/></g></g></g><g fill="#caa24c" fill-opacity="1"><g transform="translate(179.012146, 258.573499)"><g><path d="M 4.234375 0.140625 C 3.703125 0.140625 3.210938 0.046875 2.765625 -0.140625 C 2.328125 -0.328125 1.941406 -0.585938 1.609375 -0.921875 C 1.285156 -1.253906 1.035156 -1.644531 0.859375 -2.09375 C 0.679688 -2.550781 0.59375 -3.050781 0.59375 -3.59375 C 0.59375 -4.132812 0.679688 -4.628906 0.859375 -5.078125 C 1.035156 -5.535156 1.285156 -5.929688 1.609375 -6.265625 C 1.941406 -6.597656 2.328125 -6.851562 2.765625 -7.03125 C 3.210938 -7.21875 3.703125 -7.3125 4.234375 -7.3125 C 4.796875 -7.3125 5.316406 -7.207031 5.796875 -7 C 6.273438 -6.789062 6.679688 -6.492188 7.015625 -6.109375 C 7.359375 -5.722656 7.609375 -5.269531 7.765625 -4.75 L 6.796875 -4.75 C 6.609375 -5.257812 6.285156 -5.664062 5.828125 -5.96875 C 5.378906 -6.269531 4.859375 -6.421875 4.265625 -6.421875 C 3.722656 -6.421875 3.25 -6.300781 2.84375 -6.0625 C 2.4375 -5.820312 2.113281 -5.488281 1.875 -5.0625 C 1.632812 -4.632812 1.515625 -4.144531 1.515625 -3.59375 C 1.515625 -3.039062 1.632812 -2.550781 1.875 -2.125 C 2.113281 -1.695312 2.4375 -1.363281 2.84375 -1.125 C 3.25 -0.882812 3.722656 -0.765625 4.265625 -0.765625 C 4.867188 -0.765625 5.40625 -0.921875 5.875 -1.234375 C 6.351562 -1.554688 6.6875 -1.988281 6.875 -2.53125 L 7.828125 -2.53125 C 7.679688 -1.988281 7.429688 -1.519531 7.078125 -1.125 C 6.734375 -0.726562 6.316406 -0.414062 5.828125 -0.1875 C 5.347656 0.03125 4.816406 0.140625 4.234375 0.140625 Z M 4.234375 0.140625 "/></g></g></g><g fill="#caa24c" fill-opacity="1"><g transform="translate(192.450885, 258.573499)"><g><path d="M 1.046875 0 L 1.046875 -7.1875 L 5.40625 -7.1875 L 5.40625 -6.34375 L 1.953125 -6.34375 L 1.953125 -4.078125 L 5.15625 -4.078125 L 5.15625 -3.25 L 1.953125 -3.25 L 1.953125 -0.84375 L 5.515625 -0.84375 L 5.515625 0 Z M 1.046875 0 "/></g></g></g><g fill="#caa24c" fill-opacity="1"><g transform="translate(203.705542, 258.573499)"><g><path d="M 1.046875 0 L 1.046875 -7.1875 L 3.78125 -7.1875 C 4.28125 -7.1875 4.710938 -7.09375 5.078125 -6.90625 C 5.453125 -6.71875 5.742188 -6.453125 5.953125 -6.109375 C 6.160156 -5.765625 6.265625 -5.351562 6.265625 -4.875 C 6.265625 -4.289062 6.113281 -3.804688 5.8125 -3.421875 C 5.507812 -3.046875 5.09375 -2.796875 4.5625 -2.671875 L 6.375 0 L 5.28125 0 L 3.53125 -2.578125 L 1.953125 -2.578125 L 1.953125 0 Z M 1.953125 -3.4375 L 3.6875 -3.4375 C 4.207031 -3.4375 4.613281 -3.5625 4.90625 -3.8125 C 5.195312 -4.0625 5.34375 -4.414062 5.34375 -4.875 C 5.34375 -5.332031 5.195312 -5.6875 4.90625 -5.9375 C 4.613281 -6.195312 4.207031 -6.328125 3.6875 -6.328125 L 1.953125 -6.328125 Z M 1.953125 -3.4375 "/></g></g></g><g fill="#caa24c" fill-opacity="1"><g transform="translate(215.760004, 258.573499)"><g><path d="M 1.046875 0 L 1.046875 -7.1875 L 1.953125 -7.1875 L 1.953125 0 Z M 1.0625 -7.890625 L 1.71875 -9.328125 L 2.65625 -9.328125 L 1.859375 -7.890625 Z M 1.0625 -7.890625 "/></g></g></g><g fill="#caa24c" fill-opacity="1"><g transform="translate(223.825696, 258.573499)"><g><path d="M 0.171875 0 L 3.125 -7.1875 L 3.96875 -7.1875 L 6.921875 0 L 5.96875 0 L 5.296875 -1.625 L 1.796875 -1.625 L 1.140625 0 Z M 2.140625 -2.46875 L 4.953125 -2.46875 L 3.546875 -5.921875 Z M 2.140625 -2.46875 "/></g></g></g><g clip-path="url(#1ae10542d6)"><path fill="#b89632" d="M 193.917969 81.480469 L 227.746094 77.746094 L 193.917969 74.015625 L 204.75 60.496094 L 191.230469 71.328125 L 187.5 37.5 L 183.765625 71.328125 L 170.246094 60.496094 L 181.082031 74.015625 L 147.25 77.746094 L 181.082031 81.480469 L 170.246094 95 L 183.765625 84.167969 L 187.5 117.996094 L 191.230469 84.167969 L 204.75 95 L 193.917969 81.480469 " fill-opacity="1" fill-rule="nonzero"/></g></svg>