<svg xmlns="http://www.w3.org/2000/svg" xmlns:xlink="http://www.w3.org/1999/xlink" width="512" zoomAndPan="magnify" viewBox="0 0 384 383.999986" height="512" preserveAspectRatio="xMidYMid meet" version="1.0"><rect x="-38.4" width="460.8" fill="#ffffff" y="-38.399999" height="460.799983" fill-opacity="1"/><rect x="-38.4" width="460.8" fill="#ffffff" y="-38.399999" height="460.799983" fill-opacity="1"/><path fill="#000000" d="M 375.761719 346.050781 L 274.964844 245.253906 C 317.175781 188.574219 312.734375 107.878906 261.3125 56.457031 C 204.832031 -0.0195312 112.9375 -0.0195312 56.457031 56.457031 C -0.0195312 112.9375 -0.0195312 204.832031 56.457031 261.3125 C 107.878906 312.734375 188.574219 317.175781 245.253906 274.964844 L 346.050781 375.761719 C 354.257812 383.96875 367.554688 383.96875 375.761719 375.761719 C 383.96875 367.554688 383.96875 354.257812 375.761719 346.050781 Z M 76.265625 241.507812 C 30.707031 195.953125 30.707031 121.820312 76.265625 76.265625 C 121.820312 30.707031 195.949219 30.707031 241.507812 76.265625 C 287.0625 121.820312 287.0625 195.949219 241.507812 241.507812 C 195.949219 287.0625 121.820312 287.0625 76.265625 241.507812 Z M 76.265625 241.507812 " fill-opacity="1" fill-rule="nonzero"/><path fill="#000000" d="M 68.839844 168.671875 C 64.101562 168.671875 60.257812 164.828125 60.257812 160.089844 C 60.257812 106.339844 103.984375 62.617188 157.730469 62.617188 C 162.46875 62.617188 166.3125 66.460938 166.3125 71.199219 C 166.3125 75.9375 162.46875 79.78125 157.730469 79.78125 C 113.449219 79.78125 77.421875 115.808594 77.421875 160.089844 C 77.421875 164.828125 73.582031 168.671875 68.839844 168.671875 Z M 68.839844 168.671875 " fill-opacity="1" fill-rule="nonzero"/></svg>