<?xml version="1.0" encoding="utf-8"?>
<svg xmlns="http://www.w3.org/2000/svg" xmlns:xlink="http://www.w3.org/1999/xlink">
    <symbol id="icon-search" viewBox="0 0 384 384">
        <path fill="currentColor" d="M 375.761719 346.050781 L 274.964844 245.253906 C 317.175781 188.574219 312.734375 107.878906 261.3125 56.457031 C 204.832031 -0.0195312 112.9375 -0.0195312 56.457031 56.457031 C -0.0195312 112.9375 -0.0195312 204.832031 56.457031 261.3125 C 107.878906 312.734375 188.574219 317.175781 245.253906 274.964844 L 346.050781 375.761719 C 354.257812 383.96875 367.554688 383.96875 375.761719 375.761719 C 383.96875 367.554688 383.96875 354.257812 375.761719 346.050781 Z M 76.265625 241.507812 C 30.707031 195.953125 30.707031 121.820312 76.265625 76.265625 C 121.820312 30.707031 195.949219 30.707031 241.507812 76.265625 C 287.0625 121.820312 287.0625 195.949219 241.507812 241.507812 C 195.949219 287.0625 121.820312 287.0625 76.265625 241.507812 Z M 76.265625 241.507812 " fill-rule="nonzero"/>
        <path fill="currentColor" d="M 68.839844 168.671875 C 64.101562 168.671875 60.257812 164.828125 60.257812 160.089844 C 60.257812 106.339844 103.984375 62.617188 157.730469 62.617188 C 162.46875 62.617188 166.3125 66.460938 166.3125 71.199219 C 166.3125 75.9375 162.46875 79.78125 157.730469 79.78125 C 113.449219 79.78125 77.421875 115.808594 77.421875 160.089844 C 77.421875 164.828125 73.582031 168.671875 68.839844 168.671875 Z M 68.839844 168.671875 " fill-rule="nonzero"/>
    </symbol>
    <symbol id="icon-bag" viewBox="0 0 384 384">
        <path fill="currentColor" d="M 328.542969 384 L 57.15625 384 C 50.566406 384 44.167969 381.253906 39.652344 376.464844 C 35.121094 371.675781 32.726562 365.152344 33.097656 358.566406 L 47.382812 101.496094 C 48.089844 88.722656 58.648438 78.726562 71.441406 78.726562 L 314.253906 78.726562 C 327.046875 78.726562 337.605469 88.722656 338.3125 101.496094 L 352.601562 358.566406 C 352.96875 365.152344 350.574219 371.675781 346.042969 376.464844 C 341.511719 381.253906 335.132812 384 328.542969 384 Z M 71.441406 94.796875 C 67.183594 94.796875 63.648438 98.136719 63.421875 102.378906 L 49.136719 359.449219 C 49.023438 361.683594 49.792969 363.804688 51.320312 365.425781 C 52.863281 367.035156 54.921875 367.933594 57.15625 367.933594 L 328.542969 367.933594 C 330.777344 367.933594 332.847656 367.035156 334.375 365.425781 C 335.902344 363.804688 336.691406 361.683594 336.5625 359.449219 L 322.273438 102.378906 C 322.046875 98.136719 318.511719 94.796875 314.253906 94.796875 Z M 71.441406 94.796875 " fill-rule="nonzero"/>
        <path fill="currentColor" d="M 265.171875 143.382812 C 260.734375 143.382812 257.136719 139.78125 257.136719 135.347656 L 257.136719 80.207031 C 257.136719 44.761719 228.300781 15.9375 192.847656 15.9375 C 157.394531 15.9375 128.5625 44.761719 128.5625 80.207031 L 128.5625 135.347656 C 128.5625 139.78125 124.960938 143.382812 120.527344 143.382812 C 116.089844 143.382812 112.492188 139.78125 112.492188 135.347656 L 112.492188 80.207031 C 112.492188 35.910156 148.539062 -0.128906 192.847656 -0.128906 C 237.15625 -0.128906 273.207031 35.910156 273.207031 80.207031 L 273.207031 135.347656 C 273.207031 139.78125 269.605469 143.382812 265.171875 143.382812 Z M 265.171875 143.382812 " fill-rule="nonzero"/>
    </symbol>
    <symbol id="icon-user" viewBox="0 0 384 384">
        <path fill="currentColor" d="M 192 78.976562 C 155.777344 78.976562 126.207031 108.414062 126.207031 144.640625 C 126.207031 180.992188 155.777344 210.433594 192 210.433594 C 228.222656 210.433594 257.792969 180.992188 257.792969 144.640625 C 257.792969 108.414062 228.222656 78.976562 192 78.976562 Z M 192 78.976562 " fill-rule="nonzero"/>
        <path fill="currentColor" d="M 191.871094 0.128906 C 86.144531 0.128906 0 86.144531 0 192 C 0 250.878906 26.753906 303.617188 68.609375 338.816406 C 68.609375 338.816406 68.609375 338.816406 68.609375 338.945312 C 102.015625 366.976562 145.023438 383.871094 191.871094 383.871094 C 258.6875 383.871094 319.617188 350.078125 354.945312 293.375 C 374.015625 262.910156 384 227.96875 384 192 C 384 156.03125 374.015625 120.960938 354.945312 90.625 C 319.617188 33.917969 258.6875 0.128906 191.871094 0.128906 Z M 333.3125 279.808594 C 327.167969 289.664062 320 298.367188 312.191406 306.558594 C 292.734375 266.625 251.390625 240 205.695312 240 L 178.304688 240 C 146.558594 240 116.734375 252.414062 94.335938 274.816406 C 84.992188 284.03125 77.566406 294.910156 71.808594 306.6875 C 43.265625 276.863281 25.601562 236.542969 25.601562 192 C 25.601562 100.351562 100.222656 25.726562 191.871094 25.726562 C 249.855469 25.726562 302.59375 55.039062 333.3125 104.191406 C 349.695312 130.558594 358.398438 160.894531 358.398438 192 C 358.398438 223.105469 349.695312 253.441406 333.3125 279.808594 Z M 333.3125 279.808594 " fill-rule="nonzero"/>
    </symbol>
</svg>