<svg xmlns="http://www.w3.org/2000/svg" xmlns:xlink="http://www.w3.org/1999/xlink" width="512" zoomAndPan="magnify" viewBox="0 0 384 383.999986" height="512" preserveAspectRatio="xMidYMid meet" version="1.0"><rect x="-38.4" width="460.8" fill="#ffffff" y="-38.399999" height="460.799983" fill-opacity="1"/><rect x="-38.4" width="460.8" fill="#ffffff" y="-38.399999" height="460.799983" fill-opacity="1"/><path fill="#000000" d="M 192 78.976562 C 155.777344 78.976562 126.207031 108.414062 126.207031 144.640625 C 126.207031 180.992188 155.777344 210.433594 192 210.433594 C 228.222656 210.433594 257.792969 180.992188 257.792969 144.640625 C 257.792969 108.414062 228.222656 78.976562 192 78.976562 Z M 192 78.976562 " fill-opacity="1" fill-rule="nonzero"/><path fill="#000000" d="M 191.871094 0.128906 C 86.144531 0.128906 0 86.144531 0 192 C 0 250.878906 26.753906 303.617188 68.609375 338.816406 C 68.609375 338.816406 68.609375 338.816406 68.609375 338.945312 C 102.015625 366.976562 145.023438 383.871094 191.871094 383.871094 C 258.6875 383.871094 319.617188 350.078125 354.945312 293.375 C 374.015625 262.910156 384 227.96875 384 192 C 384 156.03125 374.015625 120.960938 354.945312 90.625 C 319.617188 33.917969 258.6875 0.128906 191.871094 0.128906 Z M 333.3125 279.808594 C 327.167969 289.664062 320 298.367188 312.191406 306.558594 C 292.734375 266.625 251.390625 240 205.695312 240 L 178.304688 240 C 146.558594 240 116.734375 252.414062 94.335938 274.816406 C 84.992188 284.03125 77.566406 294.910156 71.808594 306.6875 C 43.265625 276.863281 25.601562 236.542969 25.601562 192 C 25.601562 100.351562 100.222656 25.726562 191.871094 25.726562 C 249.855469 25.726562 302.59375 55.039062 333.3125 104.191406 C 349.695312 130.558594 358.398438 160.894531 358.398438 192 C 358.398438 223.105469 349.695312 253.441406 333.3125 279.808594 Z M 333.3125 279.808594 " fill-opacity="1" fill-rule="nonzero"/></svg>